<mxfile host="65bd71144e" scale="1" border="20">
    <diagram id="RedGnTHk0uesk3baBE4j" name="Page-1">
        <mxGraphModel dx="688" dy="728" grid="0" gridSize="10" guides="1" tooltips="1" connect="1" arrows="1" fold="1" page="1" pageScale="1" pageWidth="850" pageHeight="1100" background="#ffffff" math="0" shadow="0">
            <root>
                <mxCell id="0"/>
                <mxCell id="1" parent="0"/>
                <mxCell id="55" style="edgeStyle=none;html=1;exitX=0.5;exitY=1;exitDx=0;exitDy=0;exitPerimeter=0;entryX=0.5;entryY=0;entryDx=0;entryDy=0;sketch=1;curved=1;rounded=0;strokeColor=#1A1A1A;" parent="1" source="2" target="53" edge="1">
                    <mxGeometry relative="1" as="geometry"/>
                </mxCell>
                <mxCell id="2" value="Email" style="shape=note;whiteSpace=wrap;html=1;backgroundOutline=1;darkOpacity=0.05;sketch=1;rounded=0;fillColor=#f5f5f5;fontColor=#333333;strokeColor=#666666;" parent="1" vertex="1">
                    <mxGeometry x="736" y="330" width="80" height="100" as="geometry"/>
                </mxCell>
                <mxCell id="12" style="edgeStyle=none;html=1;exitX=0.5;exitY=1;exitDx=0;exitDy=0;entryX=0.5;entryY=0;entryDx=0;entryDy=0;sketch=1;curved=1;rounded=0;strokeColor=#1A1A1A;" parent="1" source="10" edge="1">
                    <mxGeometry relative="1" as="geometry">
                        <mxPoint x="130" y="120" as="targetPoint"/>
                    </mxGeometry>
                </mxCell>
                <mxCell id="10" value="Google Cloud Build" style="rounded=0;whiteSpace=wrap;html=1;sketch=1;fillColor=#f5f5f5;fontColor=#333333;strokeColor=#666666;" parent="1" vertex="1">
                    <mxGeometry x="70" y="20" width="120" height="60" as="geometry"/>
                </mxCell>
                <mxCell id="37" style="edgeStyle=none;html=1;sketch=1;curved=1;rounded=0;strokeColor=#1A1A1A;exitX=1;exitY=0.5;exitDx=0;exitDy=0;entryX=0;entryY=0.5;entryDx=0;entryDy=0;" parent="1" source="13" target="64" edge="1">
                    <mxGeometry relative="1" as="geometry">
                        <mxPoint x="243" y="300" as="targetPoint"/>
                    </mxGeometry>
                </mxCell>
                <mxCell id="13" value="forward-service" style="shape=process;whiteSpace=wrap;html=1;backgroundOutline=1;sketch=1;rounded=0;fillColor=#f5f5f5;fontColor=#333333;strokeColor=#666666;" parent="1" vertex="1">
                    <mxGeometry x="48" y="273" width="159" height="60" as="geometry"/>
                </mxCell>
                <mxCell id="26" style="edgeStyle=none;html=1;entryX=0.467;entryY=0.088;entryDx=0;entryDy=0;entryPerimeter=0;sketch=1;curved=1;rounded=0;strokeColor=#1A1A1A;exitX=0.631;exitY=0.995;exitDx=0;exitDy=0;exitPerimeter=0;" parent="1" source="65" target="25" edge="1">
                    <mxGeometry relative="1" as="geometry"/>
                </mxCell>
                <mxCell id="47" style="edgeStyle=none;html=1;exitX=0.5;exitY=1;exitDx=0;exitDy=0;entryX=0.5;entryY=0;entryDx=0;entryDy=0;entryPerimeter=0;sketch=1;curved=1;rounded=0;strokeColor=#1A1A1A;" parent="1" source="15" target="46" edge="1">
                    <mxGeometry relative="1" as="geometry"/>
                </mxCell>
                <mxCell id="62" style="edgeStyle=none;html=1;entryX=0.5;entryY=0;entryDx=0;entryDy=0;sketch=1;curved=1;rounded=0;strokeColor=#1A1A1A;exitX=0.25;exitY=1;exitDx=0;exitDy=0;fontStyle=0" parent="1" source="65" target="60" edge="1">
                    <mxGeometry relative="1" as="geometry"/>
                </mxCell>
                <mxCell id="15" value="ciccd-service" style="shape=process;whiteSpace=wrap;html=1;backgroundOutline=1;sketch=1;rounded=0;fillColor=#f5f5f5;fontColor=#333333;strokeColor=#666666;" parent="1" vertex="1">
                    <mxGeometry x="255" y="480" width="120" height="60" as="geometry"/>
                </mxCell>
                <mxCell id="56" style="edgeStyle=none;html=1;entryX=0.454;entryY=0.013;entryDx=0;entryDy=0;entryPerimeter=0;sketch=1;curved=1;rounded=0;strokeColor=#1A1A1A;" parent="1" source="17" target="19" edge="1">
                    <mxGeometry relative="1" as="geometry"/>
                </mxCell>
                <mxCell id="17" value="Custom trigger" style="rounded=0;whiteSpace=wrap;html=1;sketch=1;fillColor=#f5f5f5;fontColor=#333333;strokeColor=#666666;" parent="1" vertex="1">
                    <mxGeometry x="250" y="20" width="120" height="60" as="geometry"/>
                </mxCell>
                <mxCell id="45" value="&lt;meta charset=&quot;utf-8&quot;&gt;&lt;span style=&quot;font-family: helvetica; font-size: 11px; font-style: normal; font-weight: 400; letter-spacing: normal; text-align: center; text-indent: 0px; text-transform: none; word-spacing: 0px; display: inline; float: none;&quot;&gt;topic: ciccd-builds&lt;/span&gt;" style="edgeStyle=none;html=1;entryX=0.5;entryY=0;entryDx=0;entryDy=0;sketch=1;curved=1;rounded=0;strokeColor=#1A1A1A;labelBackgroundColor=#FFFFFF;fontColor=#1A1A1A;" parent="1" source="19" target="15" edge="1">
                    <mxGeometry relative="1" as="geometry"/>
                </mxCell>
                <mxCell id="19" value="pub sub message" style="swimlane;fontStyle=0;childLayout=stackLayout;horizontal=1;startSize=30;horizontalStack=0;resizeParent=1;resizeParentMax=0;resizeLast=0;collapsible=1;marginBottom=0;sketch=1;rounded=0;fillColor=#f5f5f5;fontColor=#333333;strokeColor=#666666;" parent="1" vertex="1">
                    <mxGeometry x="250" y="153" width="130" height="180" as="geometry">
                        <mxRectangle x="240" y="255" width="130" height="30" as="alternateBounds"/>
                    </mxGeometry>
                </mxCell>
                <mxCell id="20" value="status" style="text;strokeColor=none;fillColor=none;align=left;verticalAlign=middle;spacingLeft=4;spacingRight=4;overflow=hidden;points=[[0,0.5],[1,0.5]];portConstraint=eastwest;rotatable=0;sketch=1;rounded=0;fontColor=#1A1A1A;" parent="19" vertex="1">
                    <mxGeometry y="30" width="130" height="30" as="geometry"/>
                </mxCell>
                <mxCell id="21" value="buildId  " style="text;strokeColor=none;fillColor=none;align=left;verticalAlign=middle;spacingLeft=4;spacingRight=4;overflow=hidden;points=[[0,0.5],[1,0.5]];portConstraint=eastwest;rotatable=0;sketch=1;rounded=0;fontColor=#1A1A1A;" parent="19" vertex="1">
                    <mxGeometry y="60" width="130" height="20" as="geometry"/>
                </mxCell>
                <mxCell id="39" value="origin" style="text;strokeColor=none;fillColor=none;align=left;verticalAlign=middle;spacingLeft=4;spacingRight=4;overflow=hidden;points=[[0,0.5],[1,0.5]];portConstraint=eastwest;rotatable=0;sketch=1;rounded=0;fontColor=#1A1A1A;" parent="19" vertex="1">
                    <mxGeometry y="80" width="130" height="20" as="geometry"/>
                </mxCell>
                <mxCell id="40" value="repo" style="text;strokeColor=none;fillColor=none;align=left;verticalAlign=middle;spacingLeft=4;spacingRight=4;overflow=hidden;points=[[0,0.5],[1,0.5]];portConstraint=eastwest;rotatable=0;sketch=1;rounded=0;fontColor=#1A1A1A;" parent="19" vertex="1">
                    <mxGeometry y="100" width="130" height="20" as="geometry"/>
                </mxCell>
                <mxCell id="41" value="commitSha" style="text;strokeColor=none;fillColor=none;align=left;verticalAlign=middle;spacingLeft=4;spacingRight=4;overflow=hidden;points=[[0,0.5],[1,0.5]];portConstraint=eastwest;rotatable=0;sketch=1;rounded=0;fontColor=#1A1A1A;" parent="19" vertex="1">
                    <mxGeometry y="120" width="130" height="20" as="geometry"/>
                </mxCell>
                <mxCell id="64" value="branchName" style="text;strokeColor=none;fillColor=none;align=left;verticalAlign=middle;spacingLeft=4;spacingRight=4;overflow=hidden;points=[[0,0.5],[1,0.5]];portConstraint=eastwest;rotatable=0;sketch=1;rounded=0;fontColor=#1A1A1A;" parent="19" vertex="1">
                    <mxGeometry y="140" width="130" height="20" as="geometry"/>
                </mxCell>
                <mxCell id="42" value="name" style="text;strokeColor=none;fillColor=none;align=left;verticalAlign=middle;spacingLeft=4;spacingRight=4;overflow=hidden;points=[[0,0.5],[1,0.5]];portConstraint=eastwest;rotatable=0;sketch=1;rounded=0;fontColor=#1A1A1A;" parent="19" vertex="1">
                    <mxGeometry y="160" width="130" height="20" as="geometry"/>
                </mxCell>
                <mxCell id="27" style="edgeStyle=none;html=1;exitX=0.875;exitY=0.5;exitDx=0;exitDy=0;exitPerimeter=0;entryX=-0.037;entryY=0.6;entryDx=0;entryDy=0;entryPerimeter=0;sketch=1;curved=1;rounded=0;strokeColor=#1A1A1A;" parent="1" source="25" target="2" edge="1">
                    <mxGeometry relative="1" as="geometry"/>
                </mxCell>
                <mxCell id="25" value="SendGrid" style="ellipse;shape=cloud;whiteSpace=wrap;html=1;sketch=1;rounded=0;fillColor=#f5f5f5;strokeColor=#666666;fontColor=#333333;" parent="1" vertex="1">
                    <mxGeometry x="567" y="350" width="120" height="80" as="geometry"/>
                </mxCell>
                <mxCell id="32" value="topic: cloud builds" style="edgeStyle=none;html=1;sketch=1;curved=1;rounded=0;fillColor=#f5f5f5;strokeColor=#666666;labelBackgroundColor=#FFFFFF;fontColor=#1A1A1A;" parent="1" source="28" target="13" edge="1">
                    <mxGeometry relative="1" as="geometry"/>
                </mxCell>
                <mxCell id="28" value="pub sub message" style="swimlane;fontStyle=0;childLayout=stackLayout;horizontal=1;startSize=30;horizontalStack=0;resizeParent=1;resizeParentMax=0;resizeLast=0;collapsible=1;marginBottom=0;sketch=1;rounded=0;fillColor=#f5f5f5;fontColor=#333333;strokeColor=#666666;" parent="1" vertex="1">
                    <mxGeometry x="60" y="120" width="140" height="90" as="geometry"/>
                </mxCell>
                <mxCell id="29" value="status" style="text;strokeColor=none;fillColor=none;align=left;verticalAlign=middle;spacingLeft=4;spacingRight=4;overflow=hidden;points=[[0,0.5],[1,0.5]];portConstraint=eastwest;rotatable=0;sketch=1;rounded=0;fontColor=#1A1A1A;" parent="28" vertex="1">
                    <mxGeometry y="30" width="140" height="30" as="geometry"/>
                </mxCell>
                <mxCell id="30" value="buildId" style="text;strokeColor=none;fillColor=none;align=left;verticalAlign=middle;spacingLeft=4;spacingRight=4;overflow=hidden;points=[[0,0.5],[1,0.5]];portConstraint=eastwest;rotatable=0;sketch=1;rounded=0;fontColor=#1A1A1A;" parent="28" vertex="1">
                    <mxGeometry y="60" width="140" height="30" as="geometry"/>
                </mxCell>
                <mxCell id="46" value="Firestore" style="shape=cylinder3;whiteSpace=wrap;html=1;boundedLbl=1;backgroundOutline=1;size=15;sketch=1;rounded=0;fillColor=#f5f5f5;fontColor=#333333;strokeColor=#666666;" parent="1" vertex="1">
                    <mxGeometry x="285" y="620" width="60" height="80" as="geometry"/>
                </mxCell>
                <mxCell id="51" style="edgeStyle=none;html=1;entryX=1;entryY=0.5;entryDx=0;entryDy=0;exitX=0;exitY=0.65;exitDx=0;exitDy=0;exitPerimeter=0;sketch=1;curved=1;rounded=0;strokeColor=#1A1A1A;" parent="1" source="53" target="49" edge="1">
                    <mxGeometry relative="1" as="geometry">
                        <mxPoint x="550" y="670" as="targetPoint"/>
                        <mxPoint x="640" y="660" as="sourcePoint"/>
                    </mxGeometry>
                </mxCell>
                <mxCell id="50" style="edgeStyle=none;html=1;sketch=1;curved=1;rounded=0;strokeColor=#1A1A1A;" parent="1" source="49" target="46" edge="1">
                    <mxGeometry relative="1" as="geometry"/>
                </mxCell>
                <mxCell id="63" style="edgeStyle=none;curved=1;sketch=1;html=1;entryX=0.5;entryY=1;entryDx=0;entryDy=0;labelBackgroundColor=#FFFFFF;fontColor=#1A1A1A;strokeColor=#1A1A1A;" parent="1" source="49" target="60" edge="1">
                    <mxGeometry relative="1" as="geometry"/>
                </mxCell>
                <mxCell id="49" value="CICCD Dashboard" style="swimlane;startSize=23;sketch=1;rounded=0;fillColor=#f5f5f5;fontColor=#333333;strokeColor=#666666;" parent="1" vertex="1">
                    <mxGeometry x="478" y="615" width="140" height="85" as="geometry"/>
                </mxCell>
                <mxCell id="61" style="edgeStyle=none;html=1;entryX=1;entryY=1;entryDx=0;entryDy=0;sketch=1;curved=1;rounded=0;strokeColor=#1A1A1A;" parent="1" source="53" target="60" edge="1">
                    <mxGeometry relative="1" as="geometry"/>
                </mxCell>
                <mxCell id="53" value="" style="shape=actor;whiteSpace=wrap;html=1;sketch=1;rounded=0;fillColor=#f5f5f5;fontColor=#333333;strokeColor=#666666;" parent="1" vertex="1">
                    <mxGeometry x="759" y="620" width="40" height="60" as="geometry"/>
                </mxCell>
                <mxCell id="60" value="Issue tracker" style="swimlane;startSize=23;sketch=1;rounded=0;fillColor=#f5f5f5;fontColor=#333333;strokeColor=#666666;" parent="1" vertex="1">
                    <mxGeometry x="478" y="467.5" width="140" height="85" as="geometry"/>
                </mxCell>
                <mxCell id="65" value="report-service" style="shape=process;whiteSpace=wrap;html=1;backgroundOutline=1;sketch=1;rounded=0;fillColor=#f5f5f5;fontColor=#333333;strokeColor=#666666;" parent="1" vertex="1">
                    <mxGeometry x="497" y="266" width="201" height="60" as="geometry"/>
                </mxCell>
                <mxCell id="66" value="&lt;meta charset=&quot;utf-8&quot;&gt;&lt;span style=&quot;font-family: helvetica; font-size: 11px; font-style: normal; font-weight: 400; letter-spacing: normal; text-align: center; text-indent: 0px; text-transform: none; word-spacing: 0px; display: inline; float: none;&quot;&gt;topic: ciccd-builds&lt;/span&gt;" style="edgeStyle=none;html=1;sketch=1;curved=1;rounded=0;strokeColor=#1A1A1A;labelBackgroundColor=#FFFFFF;fontColor=#1A1A1A;exitX=1.023;exitY=0.2;exitDx=0;exitDy=0;exitPerimeter=0;entryX=0;entryY=0.5;entryDx=0;entryDy=0;" parent="1" source="64" target="65" edge="1">
                    <mxGeometry x="0.0365" y="15" relative="1" as="geometry">
                        <mxPoint x="325" y="445" as="sourcePoint"/>
                        <mxPoint x="525" y="297" as="targetPoint"/>
                        <mxPoint as="offset"/>
                    </mxGeometry>
                </mxCell>
            </root>
        </mxGraphModel>
    </diagram>
</mxfile>